<svg id="Layer_1" data-name="Layer 1" xmlns="http://www.w3.org/2000/svg" viewBox="0 0 841.89 595.28"><defs><style>.cls-1{fill:#231f20;}</style></defs><path class="cls-1" d="M583.23,90.55V326.63H477.53V238.56c0-1.61,0-3.22.08-4.81a157.85,157.85,0,0,1,3.87-30.43H482A158.81,158.81,0,0,1,583.23,90.55Z"/><path class="cls-1" d="M788.3,361.88a6.19,6.19,0,0,1,6.2,6.39A158.64,158.64,0,0,1,605.75,517.51a152.57,152.57,0,0,1-22.52-6.13,157.37,157.37,0,0,1-38.54-19.93A176.86,176.86,0,0,0,593.17,415c1.71-5.41,3.15-10.95,4.33-16.58a53.17,53.17,0,0,0,91.43-30.88v-.06a6.23,6.23,0,0,1,6.16-5.63Z"/><path class="cls-1" d="M788.3,238.55H695.1a6.23,6.23,0,0,1-6.16-5.64v0a52.4,52.4,0,0,0-8.21-23.15,53.14,53.14,0,0,0-75-14.82A53.62,53.62,0,0,0,597.5,202V84.73q4.08-1,8.25-1.81A158.47,158.47,0,0,1,794.5,232.16,6.19,6.19,0,0,1,788.3,238.55Z"/><path class="cls-1" d="M371.83,80V342L309.1,253.35l-10.63-15-29-41a18.18,18.18,0,0,1-3.35-10.52V80Z"/><path class="cls-1" d="M583.14,366.69A158.6,158.6,0,0,1,371.83,511.38a158.78,158.78,0,0,1-79.53-62.24l-2.21-3.42L270.34,415l-4.22-6.56-16.9-26.26-13.09-20.33-75.7-117.62-37.67-58.55L54.73,80h105.7l74.83,105.7,30.86,43.61,18.06,25.52,11,15.53L360,361.88l11.87,16.77,6.28,8.88a53.17,53.17,0,0,0,99.42-20l.09-.88c.14-1.58.21-3.19.21-4.81h105.1C582.93,363.5,583,365.11,583.14,366.69Z"/><path class="cls-1" d="M160.43,288.76V512.93a158.58,158.58,0,0,1-105.7-149.5V118.93l43,66.78,28.91,44.92,30.78,47.84A19.05,19.05,0,0,1,160.43,288.76Z"/></svg>